<mxfile host="app.diagrams.net" agent="Mozilla/5.0 (Windows NT 10.0; Win64; x64) AppleWebKit/537.36 (KHTML, like Gecko) Chrome/130.0.0.0 Safari/537.36" version="24.7.7">
  <diagram name="第 1 页" id="ioWE7EdjotPk2XemxLWw">
    <mxGraphModel dx="3141" dy="1132" grid="1" gridSize="10" guides="1" tooltips="1" connect="1" arrows="1" fold="1" page="1" pageScale="1" pageWidth="827" pageHeight="1169" math="0" shadow="0">
      <root>
        <mxCell id="0" />
        <mxCell id="1" parent="0" />
        <mxCell id="ENdCe34XOMe3RpwWYJYx-3" style="rounded=0;orthogonalLoop=1;jettySize=auto;html=1;exitX=1;exitY=0.5;exitDx=0;exitDy=0;entryX=0;entryY=0.5;entryDx=0;entryDy=0;" edge="1" parent="1" source="ENdCe34XOMe3RpwWYJYx-1" target="ENdCe34XOMe3RpwWYJYx-2">
          <mxGeometry relative="1" as="geometry" />
        </mxCell>
        <mxCell id="ENdCe34XOMe3RpwWYJYx-5" style="rounded=0;orthogonalLoop=1;jettySize=auto;html=1;entryX=0;entryY=0.5;entryDx=0;entryDy=0;exitX=1;exitY=0.5;exitDx=0;exitDy=0;" edge="1" parent="1" source="ENdCe34XOMe3RpwWYJYx-1" target="ENdCe34XOMe3RpwWYJYx-4">
          <mxGeometry relative="1" as="geometry" />
        </mxCell>
        <mxCell id="ENdCe34XOMe3RpwWYJYx-30" style="rounded=0;orthogonalLoop=1;jettySize=auto;html=1;exitX=1;exitY=0.5;exitDx=0;exitDy=0;" edge="1" parent="1" source="ENdCe34XOMe3RpwWYJYx-1" target="ENdCe34XOMe3RpwWYJYx-6">
          <mxGeometry relative="1" as="geometry" />
        </mxCell>
        <mxCell id="ENdCe34XOMe3RpwWYJYx-31" style="rounded=0;orthogonalLoop=1;jettySize=auto;html=1;exitX=1;exitY=0.5;exitDx=0;exitDy=0;entryX=0;entryY=0.5;entryDx=0;entryDy=0;" edge="1" parent="1" source="ENdCe34XOMe3RpwWYJYx-1" target="ENdCe34XOMe3RpwWYJYx-11">
          <mxGeometry relative="1" as="geometry" />
        </mxCell>
        <mxCell id="ENdCe34XOMe3RpwWYJYx-1" value="lmp-api" style="rounded=1;whiteSpace=wrap;html=1;" vertex="1" parent="1">
          <mxGeometry x="-40" y="440" width="120" height="60" as="geometry" />
        </mxCell>
        <mxCell id="ENdCe34XOMe3RpwWYJYx-2" value="earth-starter-tenant-activator" style="rounded=1;whiteSpace=wrap;html=1;" vertex="1" parent="1">
          <mxGeometry x="200" y="280" width="180" height="60" as="geometry" />
        </mxCell>
        <mxCell id="ENdCe34XOMe3RpwWYJYx-8" style="edgeStyle=orthogonalEdgeStyle;rounded=0;orthogonalLoop=1;jettySize=auto;html=1;exitX=1;exitY=0.5;exitDx=0;exitDy=0;" edge="1" parent="1" source="ENdCe34XOMe3RpwWYJYx-4" target="ENdCe34XOMe3RpwWYJYx-7">
          <mxGeometry relative="1" as="geometry" />
        </mxCell>
        <mxCell id="ENdCe34XOMe3RpwWYJYx-4" value="governance-client" style="rounded=1;whiteSpace=wrap;html=1;" vertex="1" parent="1">
          <mxGeometry x="200" y="380" width="120" height="60" as="geometry" />
        </mxCell>
        <mxCell id="ENdCe34XOMe3RpwWYJYx-9" style="edgeStyle=orthogonalEdgeStyle;rounded=0;orthogonalLoop=1;jettySize=auto;html=1;exitX=1;exitY=0.5;exitDx=0;exitDy=0;" edge="1" parent="1" source="ENdCe34XOMe3RpwWYJYx-6">
          <mxGeometry relative="1" as="geometry">
            <mxPoint x="520" y="510" as="targetPoint" />
          </mxGeometry>
        </mxCell>
        <mxCell id="ENdCe34XOMe3RpwWYJYx-6" value="lmp-sdk" style="rounded=1;whiteSpace=wrap;html=1;" vertex="1" parent="1">
          <mxGeometry x="200" y="480" width="120" height="60" as="geometry" />
        </mxCell>
        <mxCell id="ENdCe34XOMe3RpwWYJYx-7" value="governance-meta" style="rounded=1;whiteSpace=wrap;html=1;" vertex="1" parent="1">
          <mxGeometry x="520" y="380" width="120" height="60" as="geometry" />
        </mxCell>
        <mxCell id="ENdCe34XOMe3RpwWYJYx-10" value="lmp-common" style="rounded=1;whiteSpace=wrap;html=1;" vertex="1" parent="1">
          <mxGeometry x="520" y="480" width="120" height="60" as="geometry" />
        </mxCell>
        <mxCell id="ENdCe34XOMe3RpwWYJYx-13" style="edgeStyle=orthogonalEdgeStyle;rounded=0;orthogonalLoop=1;jettySize=auto;html=1;exitX=1;exitY=0.5;exitDx=0;exitDy=0;" edge="1" parent="1" source="ENdCe34XOMe3RpwWYJYx-11" target="ENdCe34XOMe3RpwWYJYx-12">
          <mxGeometry relative="1" as="geometry" />
        </mxCell>
        <mxCell id="ENdCe34XOMe3RpwWYJYx-22" style="rounded=0;orthogonalLoop=1;jettySize=auto;html=1;exitX=1;exitY=0.5;exitDx=0;exitDy=0;entryX=0;entryY=0.5;entryDx=0;entryDy=0;" edge="1" parent="1" source="ENdCe34XOMe3RpwWYJYx-11" target="ENdCe34XOMe3RpwWYJYx-14">
          <mxGeometry relative="1" as="geometry" />
        </mxCell>
        <mxCell id="ENdCe34XOMe3RpwWYJYx-23" style="rounded=0;orthogonalLoop=1;jettySize=auto;html=1;exitX=1;exitY=0.5;exitDx=0;exitDy=0;entryX=0;entryY=0.5;entryDx=0;entryDy=0;" edge="1" parent="1" source="ENdCe34XOMe3RpwWYJYx-11" target="ENdCe34XOMe3RpwWYJYx-15">
          <mxGeometry relative="1" as="geometry" />
        </mxCell>
        <mxCell id="ENdCe34XOMe3RpwWYJYx-24" style="rounded=0;orthogonalLoop=1;jettySize=auto;html=1;exitX=1;exitY=0.5;exitDx=0;exitDy=0;entryX=0;entryY=0.5;entryDx=0;entryDy=0;" edge="1" parent="1" source="ENdCe34XOMe3RpwWYJYx-11" target="ENdCe34XOMe3RpwWYJYx-20">
          <mxGeometry relative="1" as="geometry" />
        </mxCell>
        <mxCell id="ENdCe34XOMe3RpwWYJYx-25" style="rounded=0;orthogonalLoop=1;jettySize=auto;html=1;exitX=1;exitY=0.5;exitDx=0;exitDy=0;entryX=0;entryY=0.5;entryDx=0;entryDy=0;" edge="1" parent="1" source="ENdCe34XOMe3RpwWYJYx-11" target="ENdCe34XOMe3RpwWYJYx-21">
          <mxGeometry relative="1" as="geometry" />
        </mxCell>
        <mxCell id="ENdCe34XOMe3RpwWYJYx-26" style="rounded=0;orthogonalLoop=1;jettySize=auto;html=1;exitX=1;exitY=0.5;exitDx=0;exitDy=0;entryX=0;entryY=0.5;entryDx=0;entryDy=0;" edge="1" parent="1" source="ENdCe34XOMe3RpwWYJYx-11" target="ENdCe34XOMe3RpwWYJYx-18">
          <mxGeometry relative="1" as="geometry" />
        </mxCell>
        <mxCell id="ENdCe34XOMe3RpwWYJYx-27" style="rounded=0;orthogonalLoop=1;jettySize=auto;html=1;exitX=1;exitY=0.5;exitDx=0;exitDy=0;entryX=0;entryY=0.5;entryDx=0;entryDy=0;" edge="1" parent="1" source="ENdCe34XOMe3RpwWYJYx-11" target="ENdCe34XOMe3RpwWYJYx-16">
          <mxGeometry relative="1" as="geometry" />
        </mxCell>
        <mxCell id="ENdCe34XOMe3RpwWYJYx-28" style="rounded=0;orthogonalLoop=1;jettySize=auto;html=1;exitX=1;exitY=0.5;exitDx=0;exitDy=0;entryX=0;entryY=0.5;entryDx=0;entryDy=0;" edge="1" parent="1" source="ENdCe34XOMe3RpwWYJYx-11" target="ENdCe34XOMe3RpwWYJYx-17">
          <mxGeometry relative="1" as="geometry" />
        </mxCell>
        <mxCell id="ENdCe34XOMe3RpwWYJYx-29" style="rounded=0;orthogonalLoop=1;jettySize=auto;html=1;exitX=1;exitY=0.5;exitDx=0;exitDy=0;entryX=0;entryY=0.5;entryDx=0;entryDy=0;" edge="1" parent="1" source="ENdCe34XOMe3RpwWYJYx-11" target="ENdCe34XOMe3RpwWYJYx-19">
          <mxGeometry relative="1" as="geometry" />
        </mxCell>
        <mxCell id="ENdCe34XOMe3RpwWYJYx-11" value="xframe-dependencise" style="rounded=1;whiteSpace=wrap;html=1;" vertex="1" parent="1">
          <mxGeometry x="200" y="584.5" width="120" height="60" as="geometry" />
        </mxCell>
        <mxCell id="ENdCe34XOMe3RpwWYJYx-12" value="xframe-email-sdk" style="rounded=1;whiteSpace=wrap;html=1;" vertex="1" parent="1">
          <mxGeometry x="520" y="585" width="120" height="60" as="geometry" />
        </mxCell>
        <mxCell id="ENdCe34XOMe3RpwWYJYx-14" value="xframe-operations" style="rounded=1;whiteSpace=wrap;html=1;" vertex="1" parent="1">
          <mxGeometry x="520" y="690" width="120" height="60" as="geometry" />
        </mxCell>
        <mxCell id="ENdCe34XOMe3RpwWYJYx-15" value="xframe-sdk-starter" style="rounded=1;whiteSpace=wrap;html=1;" vertex="1" parent="1">
          <mxGeometry x="520" y="800" width="120" height="60" as="geometry" />
        </mxCell>
        <mxCell id="ENdCe34XOMe3RpwWYJYx-16" value="xframe-starter-openfeign" style="rounded=1;whiteSpace=wrap;html=1;" vertex="1" parent="1">
          <mxGeometry x="520" y="1190" width="120" height="60" as="geometry" />
        </mxCell>
        <mxCell id="ENdCe34XOMe3RpwWYJYx-17" value="xframe-starter-swagger" style="rounded=1;whiteSpace=wrap;html=1;" vertex="1" parent="1">
          <mxGeometry x="520" y="1280" width="120" height="60" as="geometry" />
        </mxCell>
        <mxCell id="ENdCe34XOMe3RpwWYJYx-18" value="xframe-starter-jooq" style="rounded=1;whiteSpace=wrap;html=1;" vertex="1" parent="1">
          <mxGeometry x="520" y="1090" width="120" height="60" as="geometry" />
        </mxCell>
        <mxCell id="ENdCe34XOMe3RpwWYJYx-19" value="xframe-starter-web" style="rounded=1;whiteSpace=wrap;html=1;" vertex="1" parent="1">
          <mxGeometry x="520" y="1380" width="120" height="60" as="geometry" />
        </mxCell>
        <mxCell id="ENdCe34XOMe3RpwWYJYx-20" value="xframe-common" style="rounded=1;whiteSpace=wrap;html=1;" vertex="1" parent="1">
          <mxGeometry x="520" y="900" width="120" height="60" as="geometry" />
        </mxCell>
        <mxCell id="ENdCe34XOMe3RpwWYJYx-21" value="xframe-starter-auth" style="rounded=1;whiteSpace=wrap;html=1;" vertex="1" parent="1">
          <mxGeometry x="520" y="1000" width="120" height="60" as="geometry" />
        </mxCell>
        <mxCell id="ENdCe34XOMe3RpwWYJYx-34" value="" style="edgeStyle=orthogonalEdgeStyle;rounded=0;orthogonalLoop=1;jettySize=auto;html=1;entryX=0;entryY=0.5;entryDx=0;entryDy=0;" edge="1" parent="1" source="ENdCe34XOMe3RpwWYJYx-32" target="ENdCe34XOMe3RpwWYJYx-35">
          <mxGeometry relative="1" as="geometry">
            <mxPoint x="160" y="1550" as="targetPoint" />
          </mxGeometry>
        </mxCell>
        <mxCell id="ENdCe34XOMe3RpwWYJYx-37" style="rounded=0;orthogonalLoop=1;jettySize=auto;html=1;exitX=1;exitY=0.5;exitDx=0;exitDy=0;entryX=0;entryY=0.5;entryDx=0;entryDy=0;" edge="1" parent="1" source="ENdCe34XOMe3RpwWYJYx-32" target="ENdCe34XOMe3RpwWYJYx-36">
          <mxGeometry relative="1" as="geometry" />
        </mxCell>
        <mxCell id="ENdCe34XOMe3RpwWYJYx-32" value="lmp-eureka" style="rounded=1;whiteSpace=wrap;html=1;" vertex="1" parent="1">
          <mxGeometry x="-40" y="1520" width="120" height="60" as="geometry" />
        </mxCell>
        <mxCell id="ENdCe34XOMe3RpwWYJYx-35" value="&lt;div&gt;lmp-dependencies&lt;/div&gt;" style="rounded=1;whiteSpace=wrap;html=1;" vertex="1" parent="1">
          <mxGeometry x="200" y="1520" width="120" height="60" as="geometry" />
        </mxCell>
        <mxCell id="ENdCe34XOMe3RpwWYJYx-36" value="lmp-server" style="rounded=1;whiteSpace=wrap;html=1;" vertex="1" parent="1">
          <mxGeometry x="200" y="1620" width="120" height="60" as="geometry" />
        </mxCell>
        <mxCell id="ENdCe34XOMe3RpwWYJYx-38" value="" style="edgeStyle=orthogonalEdgeStyle;rounded=0;orthogonalLoop=1;jettySize=auto;html=1;entryX=0;entryY=0.5;entryDx=0;entryDy=0;" edge="1" parent="1" source="ENdCe34XOMe3RpwWYJYx-40" target="ENdCe34XOMe3RpwWYJYx-41">
          <mxGeometry relative="1" as="geometry">
            <mxPoint x="160" y="1784" as="targetPoint" />
          </mxGeometry>
        </mxCell>
        <mxCell id="ENdCe34XOMe3RpwWYJYx-40" value="lmp-job" style="rounded=1;whiteSpace=wrap;html=1;" vertex="1" parent="1">
          <mxGeometry x="-40" y="1754" width="120" height="60" as="geometry" />
        </mxCell>
        <mxCell id="ENdCe34XOMe3RpwWYJYx-41" value="lmp-server" style="rounded=1;whiteSpace=wrap;html=1;" vertex="1" parent="1">
          <mxGeometry x="200" y="1754" width="120" height="60" as="geometry" />
        </mxCell>
        <mxCell id="ENdCe34XOMe3RpwWYJYx-48" style="rounded=0;orthogonalLoop=1;jettySize=auto;html=1;exitX=1;exitY=0.5;exitDx=0;exitDy=0;entryX=0;entryY=0.5;entryDx=0;entryDy=0;" edge="1" parent="1" source="ENdCe34XOMe3RpwWYJYx-44" target="ENdCe34XOMe3RpwWYJYx-46">
          <mxGeometry relative="1" as="geometry" />
        </mxCell>
        <mxCell id="ENdCe34XOMe3RpwWYJYx-49" style="rounded=0;orthogonalLoop=1;jettySize=auto;html=1;exitX=1;exitY=0.5;exitDx=0;exitDy=0;entryX=0;entryY=0.5;entryDx=0;entryDy=0;" edge="1" parent="1" source="ENdCe34XOMe3RpwWYJYx-44" target="ENdCe34XOMe3RpwWYJYx-47">
          <mxGeometry relative="1" as="geometry" />
        </mxCell>
        <mxCell id="ENdCe34XOMe3RpwWYJYx-44" value="lmp-gateway" style="rounded=1;whiteSpace=wrap;html=1;" vertex="1" parent="1">
          <mxGeometry x="-40" y="1880" width="120" height="60" as="geometry" />
        </mxCell>
        <mxCell id="ENdCe34XOMe3RpwWYJYx-51" style="edgeStyle=orthogonalEdgeStyle;rounded=0;orthogonalLoop=1;jettySize=auto;html=1;exitX=1;exitY=0.5;exitDx=0;exitDy=0;" edge="1" parent="1" source="ENdCe34XOMe3RpwWYJYx-46" target="ENdCe34XOMe3RpwWYJYx-50">
          <mxGeometry relative="1" as="geometry" />
        </mxCell>
        <mxCell id="ENdCe34XOMe3RpwWYJYx-46" value="&lt;div&gt;lmp-sdk&lt;/div&gt;" style="rounded=1;whiteSpace=wrap;html=1;" vertex="1" parent="1">
          <mxGeometry x="200" y="1880" width="120" height="60" as="geometry" />
        </mxCell>
        <mxCell id="ENdCe34XOMe3RpwWYJYx-47" value="&lt;div&gt;lmp-server&lt;/div&gt;" style="rounded=1;whiteSpace=wrap;html=1;" vertex="1" parent="1">
          <mxGeometry x="200" y="1980" width="120" height="60" as="geometry" />
        </mxCell>
        <mxCell id="ENdCe34XOMe3RpwWYJYx-50" value="&lt;div&gt;lmp-common&lt;/div&gt;" style="rounded=1;whiteSpace=wrap;html=1;" vertex="1" parent="1">
          <mxGeometry x="440" y="1880" width="120" height="60" as="geometry" />
        </mxCell>
        <mxCell id="ENdCe34XOMe3RpwWYJYx-55" style="rounded=0;orthogonalLoop=1;jettySize=auto;html=1;exitX=1;exitY=0.5;exitDx=0;exitDy=0;entryX=0;entryY=0.5;entryDx=0;entryDy=0;" edge="1" parent="1" source="ENdCe34XOMe3RpwWYJYx-57" target="ENdCe34XOMe3RpwWYJYx-60">
          <mxGeometry relative="1" as="geometry" />
        </mxCell>
        <mxCell id="ENdCe34XOMe3RpwWYJYx-56" style="rounded=0;orthogonalLoop=1;jettySize=auto;html=1;exitX=1;exitY=0.5;exitDx=0;exitDy=0;entryX=0;entryY=0.5;entryDx=0;entryDy=0;" edge="1" parent="1" source="ENdCe34XOMe3RpwWYJYx-57" target="ENdCe34XOMe3RpwWYJYx-61">
          <mxGeometry relative="1" as="geometry" />
        </mxCell>
        <mxCell id="ENdCe34XOMe3RpwWYJYx-57" value="lmp-config" style="rounded=1;whiteSpace=wrap;html=1;" vertex="1" parent="1">
          <mxGeometry x="-40" y="2200" width="120" height="60" as="geometry" />
        </mxCell>
        <mxCell id="ENdCe34XOMe3RpwWYJYx-59" style="edgeStyle=orthogonalEdgeStyle;rounded=0;orthogonalLoop=1;jettySize=auto;html=1;exitX=1;exitY=0.5;exitDx=0;exitDy=0;" edge="1" parent="1" source="ENdCe34XOMe3RpwWYJYx-60" target="ENdCe34XOMe3RpwWYJYx-62">
          <mxGeometry relative="1" as="geometry" />
        </mxCell>
        <mxCell id="ENdCe34XOMe3RpwWYJYx-60" value="&lt;div&gt;lmp-sdk&lt;/div&gt;" style="rounded=1;whiteSpace=wrap;html=1;" vertex="1" parent="1">
          <mxGeometry x="200" y="2200" width="120" height="60" as="geometry" />
        </mxCell>
        <mxCell id="ENdCe34XOMe3RpwWYJYx-61" value="&lt;div&gt;lmp-server&lt;/div&gt;" style="rounded=1;whiteSpace=wrap;html=1;" vertex="1" parent="1">
          <mxGeometry x="200" y="2300" width="120" height="60" as="geometry" />
        </mxCell>
        <mxCell id="ENdCe34XOMe3RpwWYJYx-62" value="&lt;div&gt;lmp-common&lt;/div&gt;" style="rounded=1;whiteSpace=wrap;html=1;" vertex="1" parent="1">
          <mxGeometry x="440" y="2200" width="120" height="60" as="geometry" />
        </mxCell>
        <mxCell id="ENdCe34XOMe3RpwWYJYx-63" style="rounded=0;orthogonalLoop=1;jettySize=auto;html=1;exitX=1;exitY=0.5;exitDx=0;exitDy=0;entryX=0;entryY=0.5;entryDx=0;entryDy=0;" edge="1" parent="1" source="ENdCe34XOMe3RpwWYJYx-65" target="ENdCe34XOMe3RpwWYJYx-67">
          <mxGeometry relative="1" as="geometry" />
        </mxCell>
        <mxCell id="ENdCe34XOMe3RpwWYJYx-64" style="rounded=0;orthogonalLoop=1;jettySize=auto;html=1;exitX=1;exitY=0.5;exitDx=0;exitDy=0;entryX=0;entryY=0.5;entryDx=0;entryDy=0;" edge="1" parent="1" source="ENdCe34XOMe3RpwWYJYx-65" target="ENdCe34XOMe3RpwWYJYx-68">
          <mxGeometry relative="1" as="geometry" />
        </mxCell>
        <mxCell id="ENdCe34XOMe3RpwWYJYx-65" value="lmp-auth" style="rounded=1;whiteSpace=wrap;html=1;" vertex="1" parent="1">
          <mxGeometry x="-40" y="2410" width="120" height="60" as="geometry" />
        </mxCell>
        <mxCell id="ENdCe34XOMe3RpwWYJYx-66" style="edgeStyle=orthogonalEdgeStyle;rounded=0;orthogonalLoop=1;jettySize=auto;html=1;exitX=1;exitY=0.5;exitDx=0;exitDy=0;" edge="1" parent="1" source="ENdCe34XOMe3RpwWYJYx-67" target="ENdCe34XOMe3RpwWYJYx-69">
          <mxGeometry relative="1" as="geometry" />
        </mxCell>
        <mxCell id="ENdCe34XOMe3RpwWYJYx-67" value="&lt;div&gt;lmp-sdk&lt;/div&gt;" style="rounded=1;whiteSpace=wrap;html=1;" vertex="1" parent="1">
          <mxGeometry x="200" y="2410" width="120" height="60" as="geometry" />
        </mxCell>
        <mxCell id="ENdCe34XOMe3RpwWYJYx-68" value="&lt;div&gt;lmp-server&lt;/div&gt;" style="rounded=1;whiteSpace=wrap;html=1;" vertex="1" parent="1">
          <mxGeometry x="200" y="2510" width="120" height="60" as="geometry" />
        </mxCell>
        <mxCell id="ENdCe34XOMe3RpwWYJYx-69" value="&lt;div&gt;lmp-common&lt;/div&gt;" style="rounded=1;whiteSpace=wrap;html=1;" vertex="1" parent="1">
          <mxGeometry x="440" y="2410" width="120" height="60" as="geometry" />
        </mxCell>
        <mxCell id="ENdCe34XOMe3RpwWYJYx-70" style="rounded=0;orthogonalLoop=1;jettySize=auto;html=1;exitX=1;exitY=0.5;exitDx=0;exitDy=0;entryX=0;entryY=0.5;entryDx=0;entryDy=0;" edge="1" parent="1" source="ENdCe34XOMe3RpwWYJYx-72" target="ENdCe34XOMe3RpwWYJYx-74">
          <mxGeometry relative="1" as="geometry" />
        </mxCell>
        <mxCell id="ENdCe34XOMe3RpwWYJYx-71" style="rounded=0;orthogonalLoop=1;jettySize=auto;html=1;exitX=1;exitY=0.5;exitDx=0;exitDy=0;entryX=0;entryY=0.5;entryDx=0;entryDy=0;" edge="1" parent="1" source="ENdCe34XOMe3RpwWYJYx-72" target="ENdCe34XOMe3RpwWYJYx-75">
          <mxGeometry relative="1" as="geometry" />
        </mxCell>
        <mxCell id="ENdCe34XOMe3RpwWYJYx-72" value="lmp-operation" style="rounded=1;whiteSpace=wrap;html=1;" vertex="1" parent="1">
          <mxGeometry x="-40" y="2620" width="120" height="60" as="geometry" />
        </mxCell>
        <mxCell id="ENdCe34XOMe3RpwWYJYx-73" style="edgeStyle=orthogonalEdgeStyle;rounded=0;orthogonalLoop=1;jettySize=auto;html=1;exitX=1;exitY=0.5;exitDx=0;exitDy=0;" edge="1" parent="1" source="ENdCe34XOMe3RpwWYJYx-74" target="ENdCe34XOMe3RpwWYJYx-76">
          <mxGeometry relative="1" as="geometry" />
        </mxCell>
        <mxCell id="ENdCe34XOMe3RpwWYJYx-74" value="&lt;div&gt;lmp-sdk&lt;/div&gt;" style="rounded=1;whiteSpace=wrap;html=1;" vertex="1" parent="1">
          <mxGeometry x="200" y="2620" width="120" height="60" as="geometry" />
        </mxCell>
        <mxCell id="ENdCe34XOMe3RpwWYJYx-75" value="&lt;div&gt;lmp-server&lt;/div&gt;" style="rounded=1;whiteSpace=wrap;html=1;" vertex="1" parent="1">
          <mxGeometry x="200" y="2720" width="120" height="60" as="geometry" />
        </mxCell>
        <mxCell id="ENdCe34XOMe3RpwWYJYx-76" value="&lt;div&gt;lmp-common&lt;/div&gt;" style="rounded=1;whiteSpace=wrap;html=1;" vertex="1" parent="1">
          <mxGeometry x="440" y="2620" width="120" height="60" as="geometry" />
        </mxCell>
      </root>
    </mxGraphModel>
  </diagram>
</mxfile>
